<!-- Generator: Adobe Illustrator 21.0.2, SVG Export Plug-In  -->
<svg version="1.1"
	 xmlns="http://www.w3.org/2000/svg" xmlns:xlink="http://www.w3.org/1999/xlink" xmlns:a="http://ns.adobe.com/AdobeSVGViewerExtensions/3.0/"
	 x="0px" y="0px" width="80px" height="85.867px" viewBox="0 0 80 85.867" style="enable-background:new 0 0 80 85.867;"
	 xml:space="preserve">
<style type="text/css">
	.st0{fill:#243841;}
</style>
<defs>
</defs>
<g id="XMLID_4_">
	<path id="XMLID_6_" class="st0" d="M29.407,80.724c-0.307,0-0.619-0.068-0.914-0.211L1.181,67.251C0.459,66.9,0,66.168,0,65.365
		l0-36.169c0-1.097,0.789-2.096,1.88-2.205c1.255-0.125,2.312,0.856,2.312,2.085V63.29c0,0.467,0.267,0.892,0.686,1.096
		l25.368,12.318c0.929,0.451,1.47,1.503,1.18,2.495C31.147,80.155,30.297,80.724,29.407,80.724z"/>
	<path id="XMLID_5_" class="st0" d="M40,85.867c-0.387,0-0.773-0.107-1.112-0.319c-0.612-0.383-0.984-1.055-0.984-1.777l0-35.23
		c0-0.989,0.628-1.927,1.59-2.152c1.377-0.322,2.602,0.714,2.602,2.037v31.517c0,0.222,0.232,0.367,0.432,0.27l32.62-15.84
		c0.403-0.196,0.659-0.605,0.659-1.053V22.13c0-0.301-0.309-0.503-0.585-0.383L40.84,36.769c-0.536,0.233-1.143,0.233-1.679,0
		L1.756,20.427c-0.512-0.224-0.961-0.609-1.172-1.127c-0.459-1.125,0.078-2.308,1.091-2.751L39.153,0.177
		c0.535-0.234,1.142-0.236,1.679-0.007l24.043,10.272c1.053,0.45,1.669,1.644,1.266,2.717c-0.422,1.126-1.692,1.662-2.787,1.193
		L41.015,4.807c-0.642-0.274-1.368-0.271-2.007,0.008L8.312,18.226c-0.214,0.094-0.214,0.397,0,0.491l30.606,13.371
		c0.69,0.302,1.475,0.302,2.165,0l35.982-15.72c0.648-0.283,1.394-0.221,1.987,0.167C79.643,16.922,80,17.581,80,18.288v47.064
		c0,0.811-0.463,1.55-1.192,1.904l-37.892,18.4C40.626,85.797,40.313,85.867,40,85.867z"/>
</g>
</svg>