<?xml version="1.0" encoding="utf-8"?>
<!-- Generator: Adobe Illustrator 21.1.0, SVG Export Plug-In . SVG Version: 6.00 Build 0)  -->
<svg version="1.1" id="Layer_1" xmlns="http://www.w3.org/2000/svg" xmlns:xlink="http://www.w3.org/1999/xlink" x="0px" y="0px"
	 viewBox="0 0 95.66666 95.66666" style="enable-background:new 0 0 95.66666 95.66666;" xml:space="preserve">
<style type="text/css">
	.st0{fill:#243841;}
</style>
<g id="XMLID_3_">
	<path id="XMLID_2_" class="st0" d="M37.40661,85.37798c-0.30706,0-0.61903-0.06755-0.91381-0.21085L9.18076,71.90496
		c-0.72223-0.3507-1.18075-1.08306-1.18075-1.88594L8,33.85014c0-1.09653,0.78912-2.09561,1.88021-2.20473
		c1.25482-0.12549,2.3122,0.85629,2.3122,2.08534v34.21286c0,0.46671,0.26653,0.89243,0.68636,1.0963L38.2465,81.3581
		c0.92948,0.45134,1.46978,1.50282,1.17995,2.4946C39.14713,84.80851,38.29727,85.37798,37.40661,85.37798z"/>
	<path id="XMLID_1_" class="st0" d="M48.00021,90.52063c-0.38731,0-0.77338-0.10727-1.11238-0.31934
		c-0.61208-0.38321-0.98382-1.05465-0.98382-1.77686l-0.00003-35.23022c0-0.98866,0.62768-1.92687,1.59038-2.15192
		c1.37741-0.32199,2.60205,0.7143,2.60205,2.03699v31.5172c0,0.22177,0.23209,0.36707,0.43158,0.2702l32.6203-15.8399
		c0.40327-0.19582,0.6593-0.60476,0.6593-1.05307V26.78373c0-0.30108-0.30892-0.50323-0.58482-0.3827l-34.38326,15.0218
		c-0.53551,0.23337-1.14309,0.23337-1.6786,0L9.75593,25.08117c-0.51221-0.22377-0.96068-0.60915-1.17181-1.1267
		c-0.45909-1.12537,0.0783-2.30794,1.09121-2.75058L47.15287,4.83083c0.53469-0.2336,1.14211-0.23606,1.67868-0.00681
		l24.04256,10.27202c1.05319,0.44997,1.66858,1.64416,1.26639,2.71651c-0.4223,1.12598-1.69234,1.66184-2.78689,1.1928
		l-22.3387-9.54424c-0.64153-0.2741-1.36777-0.27115-2.00706,0.00814L16.31213,22.87956c-0.21404,0.09351-0.21404,0.39711,0,0.49062
		L46.91767,36.7415c0.69019,0.30154,1.47488,0.30154,2.16507,0L85.0645,21.0213c0.64769-0.28291,1.39446-0.22067,1.9873,0.16704
		C87.6434,21.57565,88,22.23521,88,22.94227v47.06422c0,0.81054-0.4629,1.5499-1.19202,1.90395L48.91566,90.31019
		C48.62579,90.45103,48.31259,90.52063,48.00021,90.52063z"/>
</g>
</svg>
